<?xml version="1.0" encoding="utf-8"?>
<!-- Generator: Adobe Illustrator 23.1.0, SVG Export Plug-In . SVG Version: 6.00 Build 0)  -->
<svg version="1.1" id="图层_1" xmlns="http://www.w3.org/2000/svg" xmlns:xlink="http://www.w3.org/1999/xlink" x="0px" y="0px"
	 viewBox="0 0 595.28 841.89" style="enable-background:new 0 0 595.28 841.89;" xml:space="preserve">
<style type="text/css">
	.st0{clip-path:url(#SVGID_2_);fill:#4C4F6E;}
	.st1{clip-path:url(#SVGID_2_);fill:#7C7F95;}
	.st2{clip-path:url(#SVGID_2_);fill:#2C2F53;}
	.st3{fill:#4C4F6E;}
	.st4{fill:#2C2F53;}
	.st5{fill:#999AAC;}
	.st6{fill:#E80035;}
	.st7{fill:#11CBE5;}
	.st8{fill:#1E2147;}
	.st9{fill:#080B36;}
	.st10{fill:#7C7F95;}
</style>
<g>
	<g>
		<defs>
			<rect id="SVGID_1_" x="-113" y="10.89" width="819.84" height="820.72"/>
		</defs>
		<clipPath id="SVGID_2_">
			<use xlink:href="#SVGID_1_"  style="overflow:visible;"/>
		</clipPath>
		<path class="st0" d="M-38.64,11.41H631.6c41.13,0,74.48,33.34,74.48,74.48v670.25c0,41.13-33.34,74.48-74.48,74.48H-38.64
			c-41.13,0-74.48-33.34-74.48-74.48V85.89C-113.12,44.75-79.78,11.41-38.64,11.41L-38.64,11.41z M-38.64,11.41"/>
		<path class="st0" d="M-38.64,11.41h335.13c41.13,0,74.48,33.34,74.48,74.48v670.25c0,41.13-33.34,74.48-74.48,74.48H-38.64
			c-41.13,0-74.48-33.34-74.48-74.48V85.89C-113.12,44.75-79.78,11.41-38.64,11.41L-38.64,11.41z M-38.64,11.41"/>
		<path class="st1" d="M-38.64,11.41h335.13c41.13,0,74.48,33.34,74.48,74.48v670.25c0,41.13-33.34,74.48-74.48,74.48H-38.64
			c-41.13,0-74.48-33.34-74.48-74.48V85.89C-113.12,44.75-79.78,11.41-38.64,11.41L-38.64,11.41z M-38.64,11.41"/>
		<path class="st2" d="M401.93,11.69c-12.07,0.01-23.38,5.86-30.36,15.71c-6.98,9.84-8.77,22.45-4.79,33.84l0.06,0.17l0.01,0.02
			l0.03,0.09l0.03,0.1l0.03,0.08l0.13,0.36l0.02,0.09h0.01l0.18,0.54c1.36,4.19,2.36,8.49,2.96,12.84l0.01,0.1v0.01l0.02,0.09
			l0.06,0.39v0.09l0.01,0.01l0,0.09l0.01,0.02l0.06,0.47v0.01l0.01,0.08v0.02c0.03,0.16,0.05,0.32,0.06,0.48l0,0.09v0.02l0.02,0.09
			l0.04,0.38V78l0.01,0.09l0,0.02l0.01,0.09l0.04,0.38v0.01l0.01,0.08v0.04l0.01,0.09v0.1l0.04,0.25v0.09l0.01,0.04v0.11l0.01,0.07
			v0.05l0.01,0.05v0.03l0.02,0.15v0.1l0.01,0.05V80l0.01,0.06v0.1l0.02,0.05v0.11l0,0.05l0.01,0.06v0.05l0.01,0.06l0,0.05v0.06
			l0.01,0.05l0,0.06v0.05l0.01,0.09l0.01,0.07v0.05l0,0.06v0.05l0.01,0.05v0.07l0.01,0.05v0.05l0,0.07l0.01,0.04v0.1l0.01,0.06v0.05
			l0,0.06v0.05l0.01,0.06v0.06l0,0.04v0.07l0.01,0.05l0.01,0.1v0.11l0,0.05v0.06l0.01,0.06v0.1l0.01,0.07v0.04l0,0.1v0.23l0.02,0.05
			v0.35l0.01,0.09v0.27l0.01,0.06v0.42l0.01,0.07v0.66l0.02,0.07V757l-0.01,0.11v0.26l-0.01,0.11v0.25l0,0.22v0.02l-0.01,0.09v0.14
			l-0.01,0.11v0.14l0,0.09v0.02l-0.01,0.22v0.02l0,0.11v0.01l-0.01,0.11l-0.01,0.24v0.01l0,0.1v0.01l-0.02,0.23v0.01l0,0.11v0.01
			c0,0.11,0,0.23-0.01,0.34v0.01c-0.34,6.45-1.51,12.83-3.49,18.98c-6.34,19.57,4.38,40.57,23.95,46.9
			c19.56,6.34,40.56-4.38,46.9-23.94l0.01-0.05c4.79-14.81,7.22-30.27,7.21-45.84V85.89c0.02-16.78-2.81-33.43-8.36-49.27
			C431.84,21.69,417.75,11.69,401.93,11.69L401.93,11.69z M401.93,11.69"/>
	</g>
	<path class="st3" d="M333.72,85.89v670.25c0,9.88-3.92,19.35-10.91,26.33c-6.98,6.98-16.45,10.91-26.33,10.91H-38.65
		c-9.88,0-19.35-3.93-26.33-10.91c-6.99-6.98-10.91-16.45-10.91-26.33V85.89c0-9.88,3.92-19.35,10.91-26.33
		c6.98-6.98,16.45-10.91,26.33-10.91h335.13c9.87,0,19.35,3.93,26.33,10.91C329.79,66.54,333.72,76.01,333.72,85.89L333.72,85.89z
		 M333.72,85.89"/>
	<path class="st4" d="M296.48,197.59H-38.64c-9.87,0-19.35-3.92-26.33-10.9c-6.98-6.98-10.91-16.46-10.91-26.33V85.89
		c0-9.88,3.92-19.35,10.91-26.34c6.98-6.98,16.46-10.91,26.34-10.91h335.13c9.87,0,19.35,3.93,26.33,10.91
		c6.98,6.98,10.91,16.46,10.91,26.33v74.46c0,9.88-3.92,19.35-10.91,26.33C315.83,193.67,306.36,197.59,296.48,197.59L296.48,197.59
		z M296.48,197.59"/>
	<path class="st4" d="M-38.64,197.59h335.13c9.87,0,19.35,3.93,26.33,10.91c6.98,6.98,10.91,16.46,10.9,26.34v74.47
		c0,20.56-16.68,37.23-37.23,37.23H-38.64c-9.87,0-19.35-3.92-26.33-10.9c-6.98-6.99-10.91-16.45-10.91-26.33v-74.48
		c0-9.88,3.93-19.35,10.91-26.33C-57.99,201.51-48.52,197.59-38.64,197.59L-38.64,197.59z M-38.64,197.59"/>
	<path class="st4" d="M-38.64,346.53h335.13c20.56,0,37.23,16.68,37.23,37.24v74.47c0,20.57-16.67,37.24-37.23,37.24H-38.64
		c-9.88,0-19.35-3.92-26.34-10.91c-6.99-6.98-10.91-16.46-10.91-26.34v-74.47c0-9.88,3.92-19.35,10.91-26.34
		C-57.99,350.45-48.52,346.53-38.64,346.53L-38.64,346.53z M-38.64,346.53"/>
	<path class="st3" d="M17.2,383.77h223.42c10.09,0.27,18.14,8.52,18.14,18.62c0,10.1-8.04,18.36-18.14,18.62H17.2
		c-10.09-0.27-18.14-8.52-18.14-18.62C-0.93,392.3,7.11,384.04,17.2,383.77L17.2,383.77z M17.2,234.84h223.42
		c10.09,0.26,18.14,8.52,18.14,18.62c0,10.09-8.04,18.35-18.14,18.62H17.2c-10.15-0.19-18.28-8.47-18.28-18.62
		C-1.08,243.3,7.05,235.01,17.2,234.84L17.2,234.84z M17.2,85.89h223.42c6.73-0.13,13.01,3.39,16.41,9.21c3.41,5.81,3.41,13,0,18.82
		c-3.4,5.81-9.68,9.33-16.41,9.21H17.2c-6.73,0.12-13.01-3.4-16.41-9.21c-3.41-5.81-3.41-13.01,0-18.82
		C4.2,89.28,10.47,85.76,17.2,85.89L17.2,85.89z M17.2,85.89"/>
	<path class="st5" d="M17.2,85.89h37.24c6.73-0.13,13.01,3.39,16.41,9.21c3.4,5.81,3.4,13,0,18.82c-3.4,5.81-9.68,9.33-16.41,9.21
		H17.2c-6.73,0.12-13.01-3.4-16.41-9.21c-3.41-5.81-3.41-13.01,0-18.82C4.2,89.28,10.47,85.76,17.2,85.89L17.2,85.89z M17.2,234.84
		h37.24c10.09,0.26,18.13,8.52,18.13,18.62c0,10.09-8.04,18.35-18.13,18.62H17.2c-10.15-0.19-18.28-8.47-18.28-18.62
		C-1.08,243.3,7.05,235.01,17.2,234.84L17.2,234.84z M17.2,383.77h37.24c10.09,0.27,18.13,8.52,18.13,18.62
		c0,10.1-8.04,18.36-18.13,18.62H17.2c-10.09-0.27-18.14-8.52-18.14-18.62C-0.93,392.3,7.11,384.04,17.2,383.77L17.2,383.77z
		 M17.2,383.77"/>
	<path class="st4" d="M-38.64,495.49h335.13c20.56,0,37.23,16.66,37.23,37.23v74.48c0,20.56-16.67,37.23-37.23,37.24H-38.64
		c-9.87,0-19.35-3.92-26.33-10.91c-6.98-6.98-10.91-16.45-10.91-26.33v-74.48c0-9.88,3.93-19.34,10.91-26.33
		C-57.99,499.41-48.52,495.48-38.64,495.49L-38.64,495.49z M-38.64,495.49"/>
	<path class="st3" d="M17.2,532.71h223.42c10.09,0.27,18.14,8.52,18.14,18.62c0,10.1-8.04,18.35-18.14,18.62H17.2
		c-6.65,0-12.8-3.55-16.13-9.31c-3.32-5.76-3.32-12.85,0-18.62C4.41,536.26,10.55,532.71,17.2,532.71L17.2,532.71z M17.2,532.71"/>
	<path class="st4" d="M-38.64,644.43h335.13c20.56,0,37.23,16.67,37.23,37.23v74.47c0,9.88-3.92,19.35-10.91,26.33
		c-6.98,6.98-16.45,10.91-26.33,10.91H-38.64c-9.88,0-19.35-3.92-26.34-10.91c-6.99-6.98-10.91-16.46-10.91-26.34v-74.47
		c0-9.88,3.92-19.35,10.91-26.34C-57.99,648.35-48.52,644.43-38.64,644.43L-38.64,644.43z M-38.64,644.43"/>
	<path class="st3" d="M17.2,681.67h223.42c6.73-0.13,13.01,3.4,16.41,9.21c3.41,5.81,3.41,13.01,0,18.82
		c-3.4,5.81-9.68,9.33-16.41,9.21H17.2c-6.73,0.13-13.01-3.39-16.41-9.21c-3.41-5.81-3.41-13,0-18.82
		C4.2,685.07,10.47,681.54,17.2,681.67L17.2,681.67z M17.2,681.67"/>
	<path class="st6" d="M-1.41,141.73c0,10.28-8.34,18.61-18.62,18.61c-10.28,0-18.61-8.33-18.61-18.61
		c-0.12-6.73,3.39-13.01,9.21-16.41c5.81-3.41,13-3.41,18.82,0C-4.81,128.73-1.29,135-1.41,141.73L-1.41,141.73z M-1.41,141.73"/>
	<path class="st7" d="M73.06,141.73c0.13,6.73-3.39,13.01-9.21,16.41c-5.81,3.4-13,3.4-18.82,0c-5.81-3.4-9.33-9.68-9.21-16.41
		c0-10.29,8.34-18.62,18.62-18.62C64.73,123.12,73.06,131.45,73.06,141.73L73.06,141.73z M73.06,141.73"/>
	<path class="st6" d="M-1.41,290.69c0.13,6.73-3.4,13.01-9.21,16.41c-5.81,3.4-13.01,3.4-18.82,0c-5.81-3.4-9.33-9.68-9.21-16.41
		c0.19-10.14,8.47-18.27,18.61-18.27C-9.88,272.41-1.6,280.54-1.41,290.69L-1.41,290.69z M-1.41,290.69"/>
	<path class="st7" d="M73.06,290.69c0.18,6.77-3.33,13.1-9.16,16.53c-5.84,3.44-13.07,3.44-18.91,0c-5.83-3.44-9.34-9.77-9.16-16.53
		c0.19-10.15,8.47-18.28,18.62-18.28C64.59,272.41,72.88,280.54,73.06,290.69L73.06,290.69z M73.06,290.69"/>
	<path class="st6" d="M-1.41,439.63c0.13,6.73-3.4,13.01-9.21,16.41c-5.81,3.41-13.01,3.41-18.82,0c-5.81-3.4-9.33-9.68-9.21-16.41
		c0.19-10.15,8.47-18.27,18.61-18.27C-9.88,421.36-1.6,429.49-1.41,439.63L-1.41,439.63z M-1.41,439.63"/>
	<path class="st7" d="M73.06,439.63c0.18,6.77-3.33,13.1-9.17,16.53c-5.83,3.43-13.07,3.43-18.91,0c-5.83-3.44-9.34-9.77-9.16-16.53
		c0.19-10.15,8.47-18.28,18.62-18.28C64.59,421.35,72.88,429.48,73.06,439.63L73.06,439.63z M73.06,439.63"/>
	<path class="st6" d="M-1.41,588.57c0.13,6.73-3.4,13.01-9.21,16.41c-5.81,3.4-13.01,3.4-18.82,0c-5.81-3.4-9.33-9.68-9.21-16.41
		c0.19-10.14,8.47-18.27,18.61-18.27C-9.88,570.3-1.6,578.43-1.41,588.57L-1.41,588.57z M-1.41,588.57"/>
	<path class="st7" d="M73.06,588.57c0.18,6.77-3.33,13.1-9.17,16.53c-5.83,3.43-13.07,3.43-18.91,0c-5.83-3.44-9.34-9.77-9.16-16.53
		c0.19-10.15,8.47-18.28,18.62-18.28C64.59,570.29,72.88,578.42,73.06,588.57L73.06,588.57z M73.06,588.57"/>
	<path class="st6" d="M-1.41,737.51c0,10.28-8.33,18.61-18.6,18.62c-10.28,0-18.61-8.33-18.62-18.61c0-10.28,8.33-18.61,18.61-18.62
		C-9.75,718.91-1.42,727.24-1.41,737.51L-1.41,737.51z M-1.41,737.51"/>
	<path class="st7" d="M73.06,737.51c0.13,6.74-3.39,13.01-9.21,16.41c-5.81,3.4-13,3.4-18.82,0c-5.81-3.4-9.33-9.68-9.21-16.41
		c0-10.28,8.34-18.62,18.62-18.62C64.73,718.9,73.06,727.23,73.06,737.51L73.06,737.51z M73.06,737.51"/>
	<path class="st8" d="M128.91,85.89c4.94,0,9.68,1.96,13.17,5.45c3.49,3.49,5.45,8.22,5.46,13.16v37.23
		c0,10.28-8.34,18.62-18.62,18.62s-18.62-8.34-18.62-18.62V104.5c0-4.94,1.96-9.68,5.46-13.16
		C119.25,87.84,123.98,85.89,128.91,85.89L128.91,85.89z M203.38,85.89c4.94,0,9.68,1.96,13.17,5.45c3.49,3.49,5.45,8.23,5.45,13.17
		v37.23c0,6.65-3.55,12.8-9.31,16.12c-5.76,3.33-12.85,3.33-18.62,0c-5.76-3.32-9.31-9.47-9.31-16.12V104.5
		c0-4.94,1.96-9.67,5.45-13.16C193.72,87.85,198.45,85.89,203.38,85.89L203.38,85.89z M277.86,85.89c4.94,0,9.67,1.96,13.16,5.45
		c3.5,3.49,5.46,8.22,5.46,13.16v37.23c0,6.65-3.55,12.8-9.31,16.12c-5.76,3.33-12.86,3.33-18.62,0c-5.76-3.32-9.31-9.47-9.31-16.12
		V104.5C259.25,94.22,267.58,85.89,277.86,85.89L277.86,85.89z M128.91,234.84c10.28,0,18.62,8.33,18.62,18.61v37.24
		c-0.19,10.15-8.47,18.28-18.62,18.28s-18.43-8.13-18.62-18.28v-37.24C110.3,243.16,118.64,234.83,128.91,234.84L128.91,234.84z
		 M203.38,234.84c4.94,0,9.68,1.96,13.17,5.45c3.49,3.49,5.46,8.23,5.46,13.16v37.24c0,6.65-3.55,12.8-9.31,16.12
		c-5.76,3.33-12.85,3.33-18.62,0c-5.76-3.32-9.31-9.47-9.31-16.12v-37.24C184.77,243.16,193.11,234.83,203.38,234.84L203.38,234.84z
		 M203.38,383.77c4.94,0,9.68,1.96,13.17,5.45c3.49,3.49,5.45,8.23,5.45,13.16v37.24c0,6.65-3.55,12.8-9.31,16.12
		c-5.76,3.33-12.85,3.33-18.62,0c-5.76-3.32-9.31-9.47-9.31-16.12v-37.24c0-4.94,1.96-9.67,5.45-13.16
		C193.71,385.73,198.45,383.77,203.38,383.77L203.38,383.77z M203.38,532.71c4.94,0,9.68,1.96,13.17,5.45
		c3.49,3.49,5.46,8.23,5.45,13.17v37.23c0,6.65-3.55,12.8-9.31,16.13c-5.76,3.32-12.85,3.32-18.62,0
		c-5.76-3.33-9.31-9.47-9.31-16.13v-37.24C184.77,541.05,193.11,532.72,203.38,532.71L203.38,532.71z M203.38,681.67
		c4.94,0,9.68,1.96,13.17,5.45c3.49,3.49,5.46,8.23,5.45,13.17v37.23c0,6.65-3.55,12.8-9.31,16.13c-5.76,3.33-12.85,3.33-18.62,0
		c-5.76-3.33-9.31-9.47-9.31-16.13v-37.23c0-4.94,1.96-9.67,5.45-13.17C193.71,683.62,198.45,681.66,203.38,681.67L203.38,681.67z
		 M277.86,234.84c10.28,0,18.61,8.32,18.63,18.6v37.24c-0.27,10.09-8.52,18.14-18.62,18.14c-10.09,0-18.35-8.04-18.62-18.14v-37.24
		c0-10.28,8.34-18.61,18.62-18.62L277.86,234.84z M128.91,383.77c10.29,0,18.62,8.34,18.62,18.62v37.24
		c-0.19,10.15-8.47,18.28-18.62,18.28s-18.43-8.13-18.62-18.28v-37.24C110.3,392.1,118.63,383.77,128.91,383.77L128.91,383.77z
		 M277.86,383.77c10.28,0,18.62,8.33,18.63,18.61v37.23c-0.27,10.09-8.52,18.14-18.62,18.14c-10.09,0-18.35-8.04-18.62-18.14v-37.23
		c0-10.29,8.34-18.62,18.62-18.62L277.86,383.77z M128.91,532.71c10.29,0,18.62,8.34,18.62,18.63v37.23
		c-0.19,10.15-8.47,18.28-18.62,18.28s-18.43-8.13-18.62-18.28v-37.24C110.3,541.05,118.64,532.71,128.91,532.71L128.91,532.71z
		 M277.86,532.71c10.29,0,18.63,8.34,18.63,18.63v37.23c-0.27,10.09-8.52,18.14-18.62,18.14c-10.09,0-18.35-8.04-18.62-18.14v-37.24
		C259.25,541.05,267.58,532.72,277.86,532.71L277.86,532.71z M128.91,681.67c4.94,0,9.68,1.96,13.17,5.45
		c3.49,3.49,5.46,8.23,5.46,13.16v37.23c0,10.29-8.34,18.62-18.62,18.62s-18.62-8.34-18.62-18.62v-37.23
		c0-4.94,1.96-9.68,5.45-13.17C119.24,683.62,123.98,681.66,128.91,681.67L128.91,681.67z M277.86,681.67
		c4.94,0,9.68,1.96,13.17,5.45c3.49,3.49,5.46,8.23,5.46,13.16v37.23c0,6.65-3.55,12.8-9.31,16.13c-5.76,3.33-12.86,3.33-18.62,0
		c-5.76-3.33-9.31-9.47-9.31-16.13v-37.23c0-4.94,1.96-9.68,5.45-13.17C268.19,683.62,272.92,681.66,277.86,681.67L277.86,681.67z
		 M277.86,681.67"/>
	<path class="st9" d="M-38.64,48.64h2.05c10.15,0.19,18.28,8.47,18.28,18.62c0,10.15-8.13,18.43-18.28,18.62h-2.05v74.47
		c10.33,0.67,18.31,9.33,18.15,19.68c-0.14,9.44-7.61,17.14-17.04,17.56h-1.12l-0.89-0.02h-0.05c-0.02,0-3.46-0.23-4.04-0.32
		c-19.1-2.94-32.25-18.3-32.25-36.91V85.89c0-9.88,3.92-19.35,10.9-26.33C-57.99,52.57-48.53,48.65-38.64,48.64L-38.64,48.64z
		 M-38.64,48.64"/>
	<path class="st9" d="M-38.64,197.59h2.05c10.29,0,18.63,8.34,18.63,18.63c0,10.28-8.34,18.62-18.63,18.62h-2.05v74.47
		c10.33,0.67,18.31,9.32,18.15,19.67c-0.14,9.44-7.61,17.13-17.04,17.56h-2.05c-0.02,0-3.46-0.25-4.04-0.32
		c-19.1-2.96-32.25-18.31-32.25-36.91v-74.48C-75.88,214.26-59.21,197.6-38.64,197.59L-38.64,197.59z M-38.64,346.53h2.05
		c10.15,0.19,18.28,8.47,18.28,18.62c0,10.15-8.13,18.43-18.28,18.62h-2.05v74.47c10.33,0.67,18.32,9.33,18.15,19.68
		c-0.14,9.44-7.61,17.13-17.04,17.55h-1.12l-0.89-0.01h-0.05c-0.02,0-3.46-0.24-4.04-0.32c-19.1-2.95-32.25-18.3-32.25-36.91v-74.47
		c0-9.88,3.92-19.34,10.9-26.33C-57.99,350.46-48.53,346.53-38.64,346.53L-38.64,346.53z M-38.64,346.53"/>
	<path class="st9" d="M-38.64,495.49h2.05c6.74-0.13,13.01,3.4,16.41,9.2c3.41,5.81,3.41,13.01,0,18.82
		c-3.4,5.81-9.68,9.33-16.41,9.21h-2.05v74.48c10.33,0.66,18.32,9.32,18.15,19.67c-0.14,9.44-7.61,17.14-17.04,17.56h-1.12
		c-0.29,0-0.59,0-0.89-0.02h-0.05c-0.02,0-3.46-0.24-4.04-0.32c-19.1-2.94-32.25-18.3-32.25-36.9v-74.48
		C-75.88,512.16-59.21,495.49-38.64,495.49L-38.64,495.49z M-38.64,495.49"/>
	<path class="st9" d="M-38.64,644.43h2.05c6.65,0,12.8,3.55,16.13,9.31c3.33,5.76,3.33,12.86,0,18.62
		c-3.32,5.76-9.47,9.31-16.13,9.31h-2.05v74.47c10.33,0.67,18.32,9.32,18.15,19.67c-0.14,9.44-7.61,17.14-17.04,17.57h-1.12
		l-0.89-0.01h-0.05c-0.02,0-3.46-0.24-4.04-0.32c-19.1-2.95-32.25-18.3-32.25-36.91v-74.47c0-9.88,3.92-19.34,10.9-26.33
		C-57.99,648.35-48.53,644.43-38.64,644.43L-38.64,644.43z M-20.03,160.35h297.88c10.15,0.19,18.28,8.47,18.28,18.62
		c0,10.15-8.13,18.43-18.28,18.62H-20.03c-6.65,0-12.8-3.55-16.13-9.31c-3.33-5.76-3.33-12.86,0-18.62
		C-32.83,163.9-26.68,160.35-20.03,160.35L-20.03,160.35z M-20.03,309.3h297.88c6.73-0.13,13.01,3.39,16.41,9.21
		c3.4,5.81,3.4,13,0,18.82c-3.4,5.81-9.68,9.33-16.41,9.21H-20.03c-10.28,0-18.61-8.34-18.61-18.62
		C-38.64,317.64-30.31,309.3-20.03,309.3L-20.03,309.3z M-20.03,309.3"/>
	<path class="st8" d="M-20.03,458.25h297.88c6.65,0,12.8,3.55,16.12,9.31c3.33,5.76,3.33,12.85,0,18.62
		c-3.32,5.76-9.47,9.31-16.12,9.31H-20.03c-6.65,0-12.8-3.55-16.12-9.31c-3.33-5.76-3.33-12.86,0-18.62
		C-32.82,461.79-26.68,458.25-20.03,458.25L-20.03,458.25z M-20.03,458.25"/>
	<path class="st9" d="M-20.03,607.19h297.88c10.29,0,18.63,8.34,18.63,18.62c0,10.29-8.34,18.63-18.63,18.63H-20.03
		c-10.29,0-18.63-8.34-18.63-18.63C-38.65,615.52-30.31,607.19-20.03,607.19L-20.03,607.19z M-20.03,756.13h297.88
		c10.15,0.19,18.28,8.47,18.28,18.62c0,10.15-8.13,18.43-18.28,18.62H-20.03c-10.29,0-18.62-8.34-18.62-18.62
		C-38.65,764.47-30.31,756.13-20.03,756.13L-20.03,756.13z M-20.03,756.13"/>
	<path class="st5" d="M482.66,48.64H631.6c20.57,0,37.24,16.67,37.24,37.24c0,20.57-16.67,37.24-37.24,37.24H482.66
		c-20.38-0.27-36.75-16.86-36.75-37.24C445.91,65.51,462.29,48.91,482.66,48.64L482.66,48.64z M482.66,48.64"/>
	<path class="st8" d="M482.66,402.39c0.01-10.28,8.34-18.61,18.62-18.61h111.71c10.28,0,18.62,8.34,18.62,18.62
		c0,10.28-8.34,18.62-18.62,18.62H501.28C490.99,421.01,482.66,412.68,482.66,402.39L482.66,402.39z M482.66,402.39"/>
	<path class="st10" d="M482.66,365.15c0-10.29,8.34-18.62,18.62-18.62h111.71c10.29,0,18.62,8.34,18.62,18.62
		c0,10.29-8.34,18.62-18.62,18.62H501.28C490.99,383.77,482.66,375.44,482.66,365.15L482.66,365.15z M482.66,253.44
		c0-10.28,8.34-18.61,18.62-18.61h111.71c10.29,0,18.62,8.34,18.62,18.62c0,10.28-8.34,18.62-18.62,18.62H501.28
		C490.99,272.07,482.66,263.74,482.66,253.44L482.66,253.44z M482.66,253.44"/>
	<path class="st8" d="M482.66,290.69c0-4.94,1.96-9.68,5.45-13.17c3.49-3.49,8.23-5.45,13.17-5.45h111.71
		c10.29,0,18.62,8.34,18.62,18.62c0,10.29-8.34,18.62-18.62,18.62H501.28C490.99,309.3,482.66,300.96,482.66,290.69L482.66,290.69z
		 M482.66,290.69"/>
	<path class="st3" d="M482.66,327.91c0-4.94,1.97-9.67,5.46-13.16c3.49-3.49,8.23-5.45,13.16-5.45h111.71
		c10.28,0,18.61,8.33,18.61,18.61c0,10.28-8.33,18.62-18.61,18.62H501.28c-4.94,0-9.67-1.96-13.17-5.45
		C484.62,337.59,482.66,332.85,482.66,327.91L482.66,327.91z M482.66,327.91"/>
	<path class="st8" d="M482.66,625.81c0-10.29,8.34-18.62,18.62-18.62h111.71c10.29,0,18.63,8.34,18.63,18.62
		c0,10.29-8.34,18.63-18.63,18.63H501.28C490.99,644.43,482.66,636.1,482.66,625.81L482.66,625.81z M482.66,625.81"/>
	<path class="st10" d="M482.66,588.57c0-10.28,8.34-18.63,18.62-18.63h111.71c10.29,0,18.62,8.34,18.62,18.62
		c0,10.28-8.34,18.62-18.62,18.62H501.28C490.99,607.19,482.66,598.85,482.66,588.57L482.66,588.57z M482.66,476.87
		c0-10.29,8.34-18.63,18.62-18.63h111.71c10.29,0,18.62,8.34,18.62,18.62c0,10.28-8.34,18.62-18.62,18.62H501.28
		C490.99,495.49,482.66,487.15,482.66,476.87L482.66,476.87z M482.66,476.87"/>
	<path class="st8" d="M482.66,514.1c0-4.94,1.97-9.67,5.46-13.16c3.49-3.49,8.23-5.45,13.16-5.45h111.71
		c6.65,0,12.8,3.55,16.12,9.31c3.32,5.76,3.32,12.85,0,18.62c-3.33,5.76-9.47,9.3-16.12,9.3H501.28c-4.94,0-9.67-1.96-13.17-5.45
		C484.61,523.77,482.65,519.03,482.66,514.1L482.66,514.1z M482.66,514.1"/>
	<path class="st5" d="M17.2,532.71h37.24c10.09,0.27,18.13,8.52,18.13,18.62c0,10.1-8.04,18.35-18.13,18.62H17.2
		c-6.65,0-12.8-3.55-16.13-9.31c-3.32-5.76-3.32-12.85,0-18.62C4.41,536.26,10.55,532.71,17.2,532.71L17.2,532.71z M17.2,681.67
		h37.24c6.73-0.13,13.01,3.4,16.41,9.21c3.4,5.81,3.4,13.01,0,18.82c-3.4,5.81-9.68,9.33-16.41,9.21H17.2
		c-6.73,0.13-13.01-3.39-16.41-9.21c-3.41-5.81-3.41-13,0-18.82C4.2,685.07,10.47,681.54,17.2,681.67L17.2,681.67z M17.2,681.67"/>
</g>
</svg>
