<?xml version="1.0" encoding="utf-8"?>
<!-- Generator: Adobe Illustrator 23.1.0, SVG Export Plug-In . SVG Version: 6.00 Build 0)  -->
<svg version="1.1" id="图层_1" xmlns="http://www.w3.org/2000/svg" xmlns:xlink="http://www.w3.org/1999/xlink" x="0px" y="0px"
	 viewBox="0 0 100 100" style="enable-background:new 0 0 100 100;" xml:space="preserve">
<style type="text/css">
	.st0{clip-path:url(#SVGID_2_);fill:#4A4E6C;}
	.st1{clip-path:url(#SVGID_2_);fill:#7B7D92;}
	.st2{clip-path:url(#SVGID_2_);fill:#2B2E51;}
	.st3{fill:#4A4E6C;}
	.st4{fill:#2B2E51;}
	.st5{fill:#9799AA;}
	.st6{fill:#D91636;}
	.st7{fill:#35BBD3;}
	.st8{fill:#1D2046;}
	.st9{fill:#0D1633;}
	.st10{fill:#7B7D92;}
</style>
<g>
	<g>
		<defs>
			<rect id="SVGID_1_" y="-0.05" width="100" height="100.11"/>
		</defs>
		<clipPath id="SVGID_2_">
			<use xlink:href="#SVGID_1_"  style="overflow:visible;"/>
		</clipPath>
		<path class="st0" d="M9.07,0.01h81.75c5.02,0,9.08,4.07,9.08,9.08v81.75c0,5.02-4.07,9.08-9.08,9.08H9.07
			c-5.02,0-9.08-4.07-9.08-9.08V9.09C-0.01,4.08,4.05,0.01,9.07,0.01L9.07,0.01z M9.07,0.01"/>
		<path class="st0" d="M9.07,0.01h40.88c5.02,0,9.08,4.07,9.08,9.08v81.75c0,5.02-4.07,9.08-9.08,9.08H9.07
			c-5.02,0-9.08-4.07-9.08-9.08V9.09C-0.01,4.08,4.05,0.01,9.07,0.01L9.07,0.01z M9.07,0.01"/>
		<path class="st1" d="M9.07,0.01h40.88c5.02,0,9.08,4.07,9.08,9.08v81.75c0,5.02-4.07,9.08-9.08,9.08H9.07
			c-5.02,0-9.08-4.07-9.08-9.08V9.09C-0.01,4.08,4.05,0.01,9.07,0.01L9.07,0.01z M9.07,0.01"/>
		<path class="st2" d="M62.81,0.04c-1.47,0-2.85,0.72-3.7,1.92c-0.85,1.2-1.07,2.74-0.58,4.13l0.01,0.02l0,0l0,0.01l0,0.01l0,0.01
			l0.02,0.04l0,0.01h0l0.02,0.07c0.17,0.51,0.29,1.04,0.36,1.57l0,0.01v0l0,0.01l0.01,0.05v0.01l0,0l0,0.01l0,0l0.01,0.06v0l0,0.01
			v0c0,0.02,0.01,0.04,0.01,0.06l0,0.01v0l0,0.01l0.01,0.05v0l0,0.01l0,0l0,0.01l0,0.05v0l0,0.01v0l0,0.01v0.01l0,0.03v0.01l0,0V8.3
			l0,0.01v0.01l0,0.01v0l0,0.02v0.01l0,0.01v0.01l0,0.01V8.4l0,0.01v0.01l0,0.01l0,0.01v0.01l0,0.01l0,0.01v0.01l0,0.01l0,0.01v0.01
			l0,0.01l0,0.01V8.5l0,0.01v0.01l0,0.01v0.01l0,0.01v0.01l0,0.01l0,0v0.01l0,0.01v0.01l0,0.01v0.01l0,0.01v0.01l0,0.01v0.01l0,0.01
			l0,0.01v0.01l0,0.01v0.01l0,0.01v0.01l0,0.01v0l0,0.01v0.03l0,0.01v0.04l0,0.01v0.03l0,0.01v0.05l0,0.01v0.08l0,0.01v81.96l0,0.01
			V91l0,0.01v0.03l0,0.03v0l0,0.01v0.02l0,0.01v0.02l0,0.01v0l0,0.03v0l0,0.01v0l0,0.01l0,0.03v0l0,0.01v0l0,0.03v0l0,0.01v0
			c0,0.01,0,0.03,0,0.04v0c-0.04,0.79-0.18,1.57-0.43,2.32c-0.77,2.39,0.53,4.95,2.92,5.72c2.39,0.77,4.95-0.53,5.72-2.92l0-0.01
			c0.58-1.81,0.88-3.69,0.88-5.59V9.09c0-2.05-0.34-4.08-1.02-6.01C66.46,1.26,64.74,0.04,62.81,0.04L62.81,0.04z M62.81,0.04"/>
	</g>
	<path class="st3" d="M54.49,9.09v81.75c0,1.2-0.48,2.36-1.33,3.21c-0.85,0.85-2.01,1.33-3.21,1.33H9.07c-1.2,0-2.36-0.48-3.21-1.33
		c-0.85-0.85-1.33-2.01-1.33-3.21V9.09c0-1.2,0.48-2.36,1.33-3.21c0.85-0.85,2.01-1.33,3.21-1.33h40.88c1.2,0,2.36,0.48,3.21,1.33
		C54.01,6.73,54.49,7.89,54.49,9.09L54.49,9.09z M54.49,9.09"/>
	<path class="st4" d="M49.95,22.72H9.07c-1.2,0-2.36-0.48-3.21-1.33c-0.85-0.85-1.33-2.01-1.33-3.21V9.09c0-1.2,0.48-2.36,1.33-3.21
		c0.85-0.85,2.01-1.33,3.21-1.33h40.88c1.2,0,2.36,0.48,3.21,1.33c0.85,0.85,1.33,2.01,1.33,3.21v9.08c0,1.2-0.48,2.36-1.33,3.21
		C52.31,22.24,51.15,22.72,49.95,22.72L49.95,22.72z M49.95,22.72"/>
	<path class="st4" d="M9.07,22.72h40.88c1.2,0,2.36,0.48,3.21,1.33c0.85,0.85,1.33,2.01,1.33,3.21v9.08c0,2.51-2.03,4.54-4.54,4.54
		H9.07c-1.2,0-2.36-0.48-3.21-1.33c-0.85-0.85-1.33-2.01-1.33-3.21v-9.08c0-1.2,0.48-2.36,1.33-3.21
		C6.71,23.2,7.87,22.72,9.07,22.72L9.07,22.72z M9.07,22.72"/>
	<path class="st4" d="M9.07,40.89h40.88c2.51,0,4.54,2.03,4.54,4.54v9.08c0,2.51-2.03,4.54-4.54,4.54H9.07
		c-1.2,0-2.36-0.48-3.21-1.33c-0.85-0.85-1.33-2.01-1.33-3.21v-9.08c0-1.2,0.48-2.36,1.33-3.21C6.71,41.36,7.86,40.89,9.07,40.89
		L9.07,40.89z M9.07,40.89"/>
	<path class="st3" d="M15.88,45.43h27.25c1.23,0.03,2.21,1.04,2.21,2.27c0,1.23-0.98,2.24-2.21,2.27H15.88
		c-1.23-0.03-2.21-1.04-2.21-2.27C13.67,46.47,14.65,45.46,15.88,45.43L15.88,45.43z M15.88,27.26h27.25
		c1.23,0.03,2.21,1.04,2.21,2.27c0,1.23-0.98,2.24-2.21,2.27H15.88c-1.24-0.02-2.23-1.03-2.23-2.27
		C13.65,28.29,14.64,27.28,15.88,27.26L15.88,27.26z M15.88,9.09h27.25c0.82-0.02,1.59,0.41,2,1.12c0.42,0.71,0.42,1.59,0,2.3
		c-0.41,0.71-1.18,1.14-2,1.12H15.88c-0.82,0.02-1.59-0.41-2-1.12c-0.42-0.71-0.42-1.59,0-2.3C14.29,9.51,15.06,9.08,15.88,9.09
		L15.88,9.09z M15.88,9.09"/>
	<path class="st5" d="M15.88,9.09h4.54c0.82-0.02,1.59,0.41,2,1.12c0.41,0.71,0.41,1.59,0,2.3c-0.42,0.71-1.18,1.14-2,1.12h-4.54
		c-0.82,0.02-1.59-0.41-2-1.12c-0.42-0.71-0.42-1.59,0-2.3C14.29,9.51,15.06,9.08,15.88,9.09L15.88,9.09z M15.88,27.26h4.54
		c1.23,0.03,2.21,1.04,2.21,2.27c0,1.23-0.98,2.24-2.21,2.27h-4.54c-1.24-0.02-2.23-1.03-2.23-2.27
		C13.65,28.29,14.64,27.28,15.88,27.26L15.88,27.26z M15.88,45.43h4.54c1.23,0.03,2.21,1.04,2.21,2.27c0,1.23-0.98,2.24-2.21,2.27
		h-4.54c-1.23-0.03-2.21-1.04-2.21-2.27C13.67,46.47,14.65,45.46,15.88,45.43L15.88,45.43z M15.88,45.43"/>
	<path class="st4" d="M9.07,59.06h40.88c2.51,0,4.54,2.03,4.54,4.54v9.08c0,2.51-2.03,4.54-4.54,4.54H9.07
		c-1.2,0-2.36-0.48-3.21-1.33c-0.85-0.85-1.33-2.01-1.33-3.21V63.6c0-1.2,0.48-2.36,1.33-3.21C6.71,59.53,7.87,59.05,9.07,59.06
		L9.07,59.06z M9.07,59.06"/>
	<path class="st3" d="M15.88,63.6h27.25c1.23,0.03,2.21,1.04,2.21,2.27c0,1.23-0.98,2.24-2.21,2.27H15.88
		c-0.81,0-1.56-0.43-1.97-1.14c-0.41-0.7-0.41-1.57,0-2.27C14.32,64.03,15.07,63.6,15.88,63.6L15.88,63.6z M15.88,63.6"/>
	<path class="st4" d="M9.07,77.22h40.88c2.51,0,4.54,2.03,4.54,4.54v9.08c0,1.2-0.48,2.36-1.33,3.21c-0.85,0.85-2.01,1.33-3.21,1.33
		H9.07c-1.2,0-2.36-0.48-3.21-1.33c-0.85-0.85-1.33-2.01-1.33-3.21v-9.08c0-1.2,0.48-2.36,1.33-3.21
		C6.71,77.7,7.86,77.22,9.07,77.22L9.07,77.22z M9.07,77.22"/>
	<path class="st3" d="M15.88,81.76h27.25c0.82-0.02,1.59,0.41,2,1.12c0.42,0.71,0.42,1.59,0,2.3c-0.41,0.71-1.18,1.14-2,1.12H15.88
		c-0.82,0.02-1.59-0.41-2-1.12c-0.42-0.71-0.42-1.59,0-2.3C14.29,82.18,15.06,81.75,15.88,81.76L15.88,81.76z M15.88,81.76"/>
	<path class="st6" d="M13.61,15.91c0,1.25-1.02,2.27-2.27,2.27c-1.25,0-2.27-1.02-2.27-2.27c-0.02-0.82,0.41-1.59,1.12-2
		c0.71-0.42,1.59-0.42,2.3,0C13.2,14.32,13.63,15.08,13.61,15.91L13.61,15.91z M13.61,15.91"/>
	<path class="st7" d="M22.69,15.91c0.02,0.82-0.41,1.59-1.12,2c-0.71,0.42-1.59,0.42-2.3,0c-0.71-0.41-1.14-1.18-1.12-2
		c0-1.25,1.02-2.27,2.27-2.27C21.68,13.64,22.7,14.65,22.69,15.91L22.69,15.91z M22.69,15.91"/>
	<path class="st6" d="M13.61,34.07c0.02,0.82-0.41,1.59-1.12,2c-0.71,0.42-1.59,0.42-2.3,0c-0.71-0.41-1.14-1.18-1.12-2
		c0.02-1.24,1.03-2.23,2.27-2.23C12.58,31.85,13.59,32.84,13.61,34.07L13.61,34.07z M13.61,34.07"/>
	<path class="st7" d="M22.69,34.07c0.02,0.83-0.41,1.6-1.12,2.02c-0.71,0.42-1.59,0.42-2.31,0c-0.71-0.42-1.14-1.19-1.12-2.02
		c0.02-1.24,1.03-2.23,2.27-2.23C21.66,31.84,22.67,32.84,22.69,34.07L22.69,34.07z M22.69,34.07"/>
	<path class="st6" d="M13.61,52.24c0.02,0.82-0.41,1.59-1.12,2c-0.71,0.42-1.59,0.42-2.3,0c-0.71-0.42-1.14-1.18-1.12-2
		c0.02-1.24,1.03-2.23,2.27-2.23C12.58,50.01,13.59,51,13.61,52.24L13.61,52.24z M13.61,52.24"/>
	<path class="st7" d="M22.69,52.24c0.02,0.83-0.41,1.6-1.12,2.02c-0.71,0.42-1.59,0.42-2.31,0c-0.71-0.42-1.14-1.19-1.12-2.02
		c0.02-1.24,1.03-2.23,2.27-2.23C21.66,50.01,22.67,51,22.69,52.24L22.69,52.24z M22.69,52.24"/>
	<path class="st6" d="M13.61,70.41c0.02,0.82-0.41,1.59-1.12,2c-0.71,0.42-1.59,0.42-2.3,0c-0.71-0.41-1.14-1.18-1.12-2
		c0.02-1.24,1.03-2.23,2.27-2.23C12.58,68.18,13.59,69.17,13.61,70.41L13.61,70.41z M13.61,70.41"/>
	<path class="st7" d="M22.69,70.41c0.02,0.83-0.41,1.6-1.12,2.02c-0.71,0.42-1.59,0.42-2.31,0c-0.71-0.42-1.14-1.19-1.12-2.02
		c0.02-1.24,1.03-2.23,2.27-2.23C21.66,68.18,22.67,69.17,22.69,70.41L22.69,70.41z M22.69,70.41"/>
	<path class="st6" d="M13.61,88.58c0,1.25-1.02,2.27-2.27,2.27c-1.25,0-2.27-1.02-2.27-2.27c0-1.25,1.02-2.27,2.27-2.27
		C12.59,86.31,13.61,87.32,13.61,88.58L13.61,88.58z M13.61,88.58"/>
	<path class="st7" d="M22.69,88.58c0.02,0.82-0.41,1.59-1.12,2c-0.71,0.41-1.59,0.41-2.3,0c-0.71-0.42-1.14-1.18-1.12-2
		c0-1.25,1.02-2.27,2.27-2.27C21.68,86.31,22.7,87.32,22.69,88.58L22.69,88.58z M22.69,88.58"/>
	<path class="st8" d="M29.51,9.09c0.6,0,1.18,0.24,1.61,0.66c0.43,0.43,0.67,1,0.67,1.61v4.54c0,1.25-1.02,2.27-2.27,2.27
		c-1.25,0-2.27-1.02-2.27-2.27v-4.54c0-0.6,0.24-1.18,0.67-1.61C28.33,9.33,28.91,9.09,29.51,9.09L29.51,9.09z M38.59,9.09
		c0.6,0,1.18,0.24,1.61,0.66c0.43,0.43,0.67,1,0.67,1.61v4.54c0,0.81-0.43,1.56-1.14,1.97c-0.7,0.41-1.57,0.41-2.27,0
		c-0.7-0.41-1.14-1.15-1.14-1.97v-4.54c0-0.6,0.24-1.18,0.66-1.61C37.41,9.33,37.99,9.09,38.59,9.09L38.59,9.09z M47.67,9.09
		c0.6,0,1.18,0.24,1.61,0.66c0.43,0.43,0.67,1,0.67,1.61v4.54c0,0.81-0.43,1.56-1.14,1.97c-0.7,0.41-1.57,0.41-2.27,0
		c-0.7-0.41-1.14-1.15-1.14-1.97v-4.54C45.4,10.11,46.42,9.09,47.67,9.09L47.67,9.09z M29.51,27.26c1.25,0,2.27,1.02,2.27,2.27v4.54
		c-0.02,1.24-1.03,2.23-2.27,2.23c-1.24,0-2.25-0.99-2.27-2.23v-4.54C27.24,28.28,28.25,27.26,29.51,27.26L29.51,27.26z
		 M38.59,27.26c0.6,0,1.18,0.24,1.61,0.66c0.43,0.43,0.67,1,0.67,1.61v4.54c0,0.81-0.43,1.56-1.14,1.97c-0.7,0.41-1.57,0.41-2.27,0
		c-0.7-0.41-1.14-1.15-1.14-1.97v-4.54C36.32,28.28,37.34,27.26,38.59,27.26L38.59,27.26z M38.59,45.43c0.6,0,1.18,0.24,1.61,0.67
		c0.43,0.43,0.67,1,0.67,1.61v4.54c0,0.81-0.43,1.56-1.14,1.97c-0.7,0.41-1.57,0.41-2.27,0c-0.7-0.41-1.14-1.16-1.14-1.97V47.7
		c0-0.6,0.24-1.18,0.66-1.61C37.41,45.67,37.99,45.43,38.59,45.43L38.59,45.43z M38.59,63.6c0.6,0,1.18,0.24,1.61,0.67
		c0.43,0.43,0.67,1,0.67,1.61v4.54c0,0.81-0.43,1.56-1.14,1.97c-0.7,0.41-1.57,0.41-2.27,0c-0.7-0.41-1.14-1.16-1.14-1.97v-4.54
		C36.32,64.61,37.34,63.6,38.59,63.6L38.59,63.6z M38.59,81.76c0.6,0,1.18,0.24,1.61,0.66c0.43,0.43,0.67,1,0.67,1.61v4.54
		c0,0.81-0.43,1.56-1.14,1.97c-0.7,0.41-1.57,0.41-2.27,0c-0.7-0.41-1.14-1.16-1.14-1.97v-4.54c0-0.6,0.24-1.18,0.66-1.61
		C37.41,82,37.99,81.76,38.59,81.76L38.59,81.76z M47.67,27.26c1.25,0,2.27,1.02,2.27,2.27v4.54c-0.03,1.23-1.04,2.21-2.27,2.21
		c-1.23,0-2.24-0.98-2.27-2.21v-4.54C45.4,28.28,46.42,27.26,47.67,27.26L47.67,27.26z M29.51,45.43c1.25,0,2.27,1.02,2.27,2.27
		v4.54c-0.02,1.24-1.03,2.23-2.27,2.23c-1.24,0-2.25-0.99-2.27-2.23V47.7C27.24,46.45,28.25,45.43,29.51,45.43L29.51,45.43z
		 M47.67,45.43c1.25,0,2.27,1.02,2.27,2.27v4.54c-0.03,1.23-1.04,2.21-2.27,2.21c-1.23,0-2.24-0.98-2.27-2.21V47.7
		C45.4,46.44,46.42,45.43,47.67,45.43L47.67,45.43z M29.51,63.6c1.25,0,2.27,1.02,2.27,2.27v4.54c-0.02,1.24-1.03,2.23-2.27,2.23
		c-1.24,0-2.25-0.99-2.27-2.23v-4.54C27.24,64.61,28.25,63.6,29.51,63.6L29.51,63.6z M47.67,63.6c1.25,0,2.27,1.02,2.27,2.27v4.54
		c-0.03,1.23-1.04,2.21-2.27,2.21c-1.23,0-2.24-0.98-2.27-2.21v-4.54C45.4,64.61,46.42,63.6,47.67,63.6L47.67,63.6z M29.51,81.76
		c0.6,0,1.18,0.24,1.61,0.67c0.43,0.43,0.67,1,0.67,1.61v4.54c0,1.25-1.02,2.27-2.27,2.27c-1.25,0-2.27-1.02-2.27-2.27v-4.54
		c0-0.6,0.24-1.18,0.67-1.61C28.33,82,28.91,81.76,29.51,81.76L29.51,81.76z M47.67,81.76c0.6,0,1.18,0.24,1.61,0.67
		c0.43,0.43,0.67,1,0.67,1.61v4.54c0,0.81-0.43,1.56-1.14,1.97c-0.7,0.41-1.57,0.41-2.27,0c-0.7-0.41-1.14-1.16-1.14-1.97v-4.54
		c0-0.6,0.24-1.18,0.67-1.61C46.5,82,47.07,81.76,47.67,81.76L47.67,81.76z M47.67,81.76"/>
	<path class="st9" d="M9.07,4.55h0.25c1.24,0.02,2.23,1.03,2.23,2.27c0,1.24-0.99,2.25-2.23,2.27H9.07v9.08
		c1.26,0.08,2.23,1.14,2.21,2.4c-0.02,1.15-0.93,2.09-2.08,2.14H9.07l-0.11,0H8.95c0,0-0.42-0.03-0.49-0.04
		c-2.33-0.36-3.93-2.23-3.93-4.5V9.09c0-1.2,0.48-2.36,1.33-3.21C6.71,5.03,7.86,4.55,9.07,4.55L9.07,4.55z M9.07,4.55"/>
	<path class="st9" d="M9.07,22.72h0.25c1.26,0,2.27,1.02,2.27,2.27c0,1.25-1.02,2.27-2.27,2.27H9.07v9.08
		c1.26,0.08,2.23,1.14,2.21,2.4c-0.02,1.15-0.93,2.09-2.08,2.14H8.95c0,0-0.42-0.03-0.49-0.04c-2.33-0.36-3.93-2.23-3.93-4.5v-9.08
		C4.53,24.75,6.56,22.72,9.07,22.72L9.07,22.72z M9.07,40.89h0.25c1.24,0.02,2.23,1.03,2.23,2.27c0,1.24-0.99,2.25-2.23,2.27H9.07
		v9.08c1.26,0.08,2.23,1.14,2.21,2.4c-0.02,1.15-0.93,2.09-2.08,2.14H9.07l-0.11,0H8.95c0,0-0.42-0.03-0.49-0.04
		c-2.33-0.36-3.93-2.23-3.93-4.5v-9.08c0-1.2,0.48-2.36,1.33-3.21C6.71,41.37,7.86,40.89,9.07,40.89L9.07,40.89z M9.07,40.89"/>
	<path class="st9" d="M9.07,59.06h0.25c0.82-0.02,1.59,0.41,2,1.12c0.42,0.71,0.42,1.59,0,2.3c-0.42,0.71-1.18,1.14-2,1.12H9.07
		v9.09c1.26,0.08,2.23,1.14,2.21,2.4c-0.02,1.15-0.93,2.09-2.08,2.14H9.07c-0.04,0-0.07,0-0.11,0H8.95c0,0-0.42-0.03-0.49-0.04
		c-2.33-0.36-3.93-2.23-3.93-4.5V63.6C4.53,61.09,6.56,59.06,9.07,59.06L9.07,59.06z M9.07,59.06"/>
	<path class="st9" d="M9.07,77.22h0.25c0.81,0,1.56,0.43,1.97,1.14c0.41,0.7,0.41,1.57,0,2.27c-0.41,0.7-1.16,1.14-1.97,1.14H9.07
		v9.08c1.26,0.08,2.23,1.14,2.21,2.4c-0.02,1.15-0.93,2.09-2.08,2.14H9.07l-0.11,0H8.95c0,0-0.42-0.03-0.49-0.04
		c-2.33-0.36-3.93-2.23-3.93-4.5v-9.08c0-1.2,0.48-2.36,1.33-3.21C6.71,77.7,7.86,77.22,9.07,77.22L9.07,77.22z M11.34,18.18h36.33
		c1.24,0.02,2.23,1.03,2.23,2.27c0,1.24-0.99,2.25-2.23,2.27H11.34c-0.81,0-1.56-0.43-1.97-1.14c-0.41-0.7-0.41-1.57,0-2.27
		C9.78,18.61,10.53,18.18,11.34,18.18L11.34,18.18z M11.34,36.35h36.33c0.82-0.02,1.59,0.41,2,1.12c0.41,0.71,0.41,1.59,0,2.3
		c-0.42,0.71-1.18,1.14-2,1.12H11.34c-1.25,0-2.27-1.02-2.27-2.27C9.07,37.36,10.09,36.35,11.34,36.35L11.34,36.35z M11.34,36.35"/>
	<path class="st8" d="M11.34,54.51h36.33c0.81,0,1.56,0.43,1.97,1.14c0.41,0.7,0.41,1.57,0,2.27c-0.41,0.7-1.15,1.14-1.97,1.14
		H11.34c-0.81,0-1.56-0.43-1.97-1.14c-0.41-0.7-0.41-1.57,0-2.27C9.78,54.95,10.53,54.51,11.34,54.51L11.34,54.51z M11.34,54.51"/>
	<path class="st9" d="M11.34,72.68h36.33c1.25,0,2.27,1.02,2.27,2.27c0,1.25-1.02,2.27-2.27,2.27H11.34c-1.25,0-2.27-1.02-2.27-2.27
		C9.07,73.7,10.09,72.68,11.34,72.68L11.34,72.68z M11.34,90.85h36.33c1.24,0.02,2.23,1.03,2.23,2.27c0,1.24-0.99,2.25-2.23,2.27
		H11.34c-1.25,0-2.27-1.02-2.27-2.27C9.07,91.86,10.09,90.85,11.34,90.85L11.34,90.85z M11.34,90.85"/>
	<path class="st5" d="M72.66,4.55h18.17c2.51,0,4.54,2.03,4.54,4.54c0,2.51-2.03,4.54-4.54,4.54H72.66
		c-2.49-0.03-4.48-2.06-4.48-4.54C68.17,6.61,70.17,4.58,72.66,4.55L72.66,4.55z M72.66,4.55"/>
	<path class="st8" d="M72.66,47.7c0-1.25,1.02-2.27,2.27-2.27h13.63c1.25,0,2.27,1.02,2.27,2.27c0,1.25-1.02,2.27-2.27,2.27H74.93
		C73.67,49.97,72.66,48.95,72.66,47.7L72.66,47.7z M72.66,47.7"/>
	<path class="st10" d="M72.66,43.16c0-1.25,1.02-2.27,2.27-2.27h13.63c1.25,0,2.27,1.02,2.27,2.27c0,1.25-1.02,2.27-2.27,2.27H74.93
		C73.67,45.43,72.66,44.41,72.66,43.16L72.66,43.16z M72.66,29.53c0-1.25,1.02-2.27,2.27-2.27h13.63c1.25,0,2.27,1.02,2.27,2.27
		c0,1.25-1.02,2.27-2.27,2.27H74.93C73.67,31.8,72.66,30.79,72.66,29.53L72.66,29.53z M72.66,29.53"/>
	<path class="st8" d="M72.66,34.07c0-0.6,0.24-1.18,0.67-1.61c0.43-0.43,1-0.67,1.61-0.67h13.63c1.25,0,2.27,1.02,2.27,2.27
		c0,1.25-1.02,2.27-2.27,2.27H74.93C73.67,36.35,72.66,35.33,72.66,34.07L72.66,34.07z M72.66,34.07"/>
	<path class="st3" d="M72.66,38.62c0-0.6,0.24-1.18,0.67-1.61c0.43-0.43,1-0.66,1.61-0.66h13.63c1.25,0,2.27,1.02,2.27,2.27
		c0,1.25-1.02,2.27-2.27,2.27H74.93c-0.6,0-1.18-0.24-1.61-0.67C72.89,39.8,72.66,39.22,72.66,38.62L72.66,38.62z M72.66,38.62"/>
	<path class="st8" d="M72.66,74.95c0-1.25,1.02-2.27,2.27-2.27h13.63c1.25,0,2.27,1.02,2.27,2.27c0,1.25-1.02,2.27-2.27,2.27H74.93
		C73.67,77.22,72.66,76.21,72.66,74.95L72.66,74.95z M72.66,74.95"/>
	<path class="st10" d="M72.66,70.41c0-1.25,1.02-2.27,2.27-2.27h13.63c1.25,0,2.27,1.02,2.27,2.27c0,1.25-1.02,2.27-2.27,2.27H74.93
		C73.67,72.68,72.66,71.66,72.66,70.41L72.66,70.41z M72.66,56.78c0-1.26,1.02-2.27,2.27-2.27h13.63c1.25,0,2.27,1.02,2.27,2.27
		c0,1.25-1.02,2.27-2.27,2.27H74.93C73.67,59.06,72.66,58.04,72.66,56.78L72.66,56.78z M72.66,56.78"/>
	<path class="st8" d="M72.66,61.33c0-0.6,0.24-1.18,0.67-1.61c0.43-0.43,1-0.66,1.61-0.66h13.63c0.81,0,1.56,0.43,1.97,1.13
		c0.41,0.7,0.41,1.57,0,2.27c-0.41,0.7-1.15,1.13-1.97,1.13H74.93c-0.6,0-1.18-0.24-1.61-0.67C72.89,62.5,72.65,61.93,72.66,61.33
		L72.66,61.33z M72.66,61.33"/>
	<path class="st5" d="M15.88,63.6h4.54c1.23,0.03,2.21,1.04,2.21,2.27c0,1.23-0.98,2.24-2.21,2.27h-4.54
		c-0.81,0-1.56-0.43-1.97-1.14c-0.41-0.7-0.41-1.57,0-2.27C14.32,64.03,15.07,63.6,15.88,63.6L15.88,63.6z M15.88,81.76h4.54
		c0.82-0.02,1.59,0.41,2,1.12c0.41,0.71,0.41,1.59,0,2.3c-0.42,0.71-1.18,1.14-2,1.12h-4.54c-0.82,0.02-1.59-0.41-2-1.12
		c-0.42-0.71-0.42-1.59,0-2.3C14.29,82.18,15.06,81.75,15.88,81.76L15.88,81.76z M15.88,81.76"/>
</g>
</svg>
